<?xml version="1.0" standalone="no"?>
<!DOCTYPE svg PUBLIC "-//W3C//DTD SVG 20010904//EN"
 "http://www.w3.org/TR/2001/REC-SVG-20010904/DTD/svg10.dtd">
<svg version="1.0" xmlns="http://www.w3.org/2000/svg"
 width="313.000000pt" height="313.000000pt" viewBox="0 0 313.000000 313.000000"
 preserveAspectRatio="xMidYMid meet">
<metadata>
Created by potrace 1.14, written by Peter Selinger 2001-2017
</metadata>
<g transform="translate(0.000000,313.000000) scale(0.100000,-0.100000)"
fill="#000000" stroke="none">
<path d="M615 2396 c-635 -637 -605 -600 -611 -766 -3 -96 5 -152 38 -259 l22
-73 559 -559 559 -559 138 137 139 138 -556 557 -557 557 557 558 557 557
-137 138 c-76 76 -140 138 -143 137 -3 0 -257 -254 -565 -563z"/>
<path d="M1623 2185 c-34 -8 -77 -20 -95 -28 -18 -9 -39 -17 -46 -19 -7 -2
-140 -130 -296 -286 l-283 -283 140 -138 139 -138 278 277 278 278 138 -139
139 -139 -278 -278 -277 -278 135 -137 c75 -75 139 -137 143 -137 4 0 131 124
282 275 l275 275 137 -137 138 -138 274 0 c242 0 273 2 266 15 -5 8 -126 131
-270 273 -143 143 -260 262 -260 265 0 4 121 128 269 276 149 149 268 273 266
276 -2 4 -126 6 -274 6 l-271 -1 -138 -138 -139 -139 -134 134 c-74 73 -146
141 -160 150 -86 55 -255 79 -376 53z"/>
</g>
</svg>
